<?xml version="1.0" encoding="UTF-8" standalone="no"?>
<!-- Created with Inkscape (http://www.inkscape.org/) -->

<svg
   xmlns:dc="http://purl.org/dc/elements/1.1/"
   xmlns:cc="http://creativecommons.org/ns#"
   xmlns:rdf="http://www.w3.org/1999/02/22-rdf-syntax-ns#"
   xmlns:svg="http://www.w3.org/2000/svg"
   xmlns="http://www.w3.org/2000/svg"
   xmlns:sodipodi="http://sodipodi.sourceforge.net/DTD/sodipodi-0.dtd"
   xmlns:inkscape="http://www.inkscape.org/namespaces/inkscape"
   width="96px"
   height="96px"
   id="svg2985"
   version="1.1"
   inkscape:version="0.48.4 r9939"
   sodipodi:docname="icon.svg">
  <defs
     id="defs2987" />
  <sodipodi:namedview
     id="base"
     pagecolor="#ffffff"
     bordercolor="#666666"
     borderopacity="1.0"
     inkscape:pageopacity="0.0"
     inkscape:pageshadow="2"
     inkscape:zoom="5.6568542"
     inkscape:cx="35.559838"
     inkscape:cy="25.736755"
     inkscape:current-layer="layer8"
     showgrid="true"
     inkscape:document-units="px"
     inkscape:grid-bbox="true"
     inkscape:window-width="1366"
     inkscape:window-height="724"
     inkscape:window-x="0"
     inkscape:window-y="26"
     inkscape:window-maximized="1" />
  <metadata
     id="metadata2990">
    <rdf:RDF>
      <cc:Work
         rdf:about="">
        <dc:format>image/svg+xml</dc:format>
        <dc:type
           rdf:resource="http://purl.org/dc/dcmitype/StillImage" />
        <dc:title></dc:title>
      </cc:Work>
    </rdf:RDF>
  </metadata>
  <g
     inkscape:groupmode="layer"
     id="layer5"
     inkscape:label="Background">
    <path
       style="fill:#ffed00"
       d="m 7.6755267,32.077471 0,-24.9419167 24.4276503,0 24.427651,0 -0.03247,24.9094437 -0.03247,24.909443 -24.395184,0.03247 -24.3951843,0.03247 0,-24.941917 z M 36.474057,49.832027 c 3.149554,-0.549664 4.897855,-1.253617 6.954506,-2.80023 3.134808,-2.357391 5.156201,-5.61517 5.645649,-9.098809 0.206249,-1.46797 0.09981,-2.860083 -0.355356,-4.647947 l -0.355634,-1.396889 -0.512716,-0.08546 c -0.281995,-0.047 -7.108095,-0.126278 -15.169112,-0.176169 -17.684395,-0.10945 -18.578359,-0.06578 -18.471812,0.902346 0.02522,0.229123 0.260413,0.611355 0.598754,0.973068 0.691858,0.739653 0.860809,1.070552 1.990248,3.898007 1.648271,4.126306 2.840113,6.349036 3.571574,6.660821 0.557609,0.237681 0.80468,0.499998 0.80468,0.854338 0,0.230745 0.226023,0.547121 0.766045,1.072276 1.805513,1.755809 5.800183,3.860151 7.847801,4.134124 1.070578,0.143245 5.240493,-0.03731 6.685373,-0.289475 z M 20.437444,27.39819 c 2.95319,-0.09205 5.401337,-0.199268 5.440324,-0.238255 0.186062,-0.186063 0.329022,-3.680414 0.193887,-4.739141 -0.40641,-3.184039 -2.340081,-5.943821 -4.867919,-6.947609 -1.078704,-0.428346 -2.899006,-0.422686 -3.885844,0.01208 -1.685188,0.742439 -2.774149,1.676713 -3.454742,2.963995 -0.746964,1.412819 -1.431554,4.020023 -1.430006,5.446068 8.36e-4,0.764328 0.134024,1.302753 0.664376,2.68566 l 0.382116,0.996377 0.794185,-0.0059 c 0.436802,-0.0033 3.210433,-0.08122 6.163623,-0.173274 l 0,-3e-6 z m 29.082983,-0.945764 c 0.541446,-2.706239 0.363538,-4.481339 -0.660373,-6.58895 -0.50005,-1.029299 -0.767485,-1.393737 -1.700636,-2.317486 -1.640418,-1.623888 -3.335595,-2.370998 -5.322084,-2.345585 -3.84713,0.04922 -6.903481,3.057182 -7.688856,7.567136 -0.166608,0.956732 -0.08895,3.138401 0.140058,3.934742 0.125743,0.437251 0.183241,0.481847 0.726236,0.563275 1.132898,0.169888 4.389987,0.271898 9.31629,0.291778 l 4.964295,0.02003 0.22507,-1.124942 z"
       id="path3155"
       inkscape:connector-curvature="0" />
  </g>
  <g
     inkscape:groupmode="layer"
     id="layer4"
     inkscape:label="Traced">
    <path
       style="fill:#000000"
       d="m 0.01173344,32.051631 0,-31.93663592 32.06520056,0 32.065201,0 0,31.93663592 0,31.936636 -32.065201,0 -32.06520056,0 0,-31.936636 z m 56.43475356,0 0,-24.910576 -24.369553,0 -24.3695523,0 0,24.910576 0,24.910576 24.3695523,0 24.369553,0 0,-24.910576 z M 29.117395,50.033319 c -2.562962,-0.534432 -7.942629,-3.931196 -7.942629,-5.015039 0,-0.4569 -0.281176,-0.830727 -0.624835,-0.830727 -0.772226,0 -2.472048,-3.117828 -4.004685,-7.345427 -0.636792,-1.756515 -1.442882,-3.289473 -1.791314,-3.406574 -0.348431,-0.117101 -0.63351,-0.624798 -0.63351,-1.128215 0,-0.775968 2.605312,-0.889407 17.114395,-0.745188 l 17.114395,0.170116 0.574311,2.208522 c 1.387469,5.33554 -1.910528,11.550221 -7.733718,14.573268 -2.673511,1.387925 -8.927738,2.174994 -12.07241,1.519264 z m 6.918764,-1.484144 c 1.878674,-0.411532 3.871375,-1.130106 4.428225,-1.596832 0.556848,-0.466726 1.350462,-0.848592 1.763586,-0.848592 1.318094,0 0.809588,-1.149021 -1.111451,-2.511437 -2.630438,-1.865526 -7.49196,-1.806229 -9.785945,0.119362 -2.486766,2.087412 -2.935409,4.162388 -1.061771,4.910689 1.965954,0.785171 1.841674,0.786748 5.767356,-0.07319 z m -8.784837,-2.39574 c 0.215188,-0.675279 1.534107,-2.256143 2.930931,-3.51303 2.37039,-2.132918 2.820708,-2.285249 6.75564,-2.285249 3.748919,0 4.412243,0.195497 5.987801,1.764738 l 1.771843,1.764738 1.21607,-1.605055 c 0.847466,-1.118544 1.218783,-2.669893 1.225021,-5.118084 l 0.009,-3.51303 -14.910319,-0.171455 c -9.609663,-0.110503 -14.910318,0.05521 -14.910318,0.466123 0,2.572095 3.964111,9.36318 7.003369,11.997764 2.022659,1.753344 2.420779,1.782312 2.921011,0.21254 z M 12.762454,25.847201 c -0.515559,-1.305868 -0.50352,-2.542827 0.04522,-4.645778 0.867702,-3.325342 1.952731,-4.69801 4.565634,-5.775969 4.314005,-1.779756 9.173438,3.03615 8.809617,8.730706 l -0.198378,3.104976 -6.259725,0.182897 -6.259726,0.182897 -0.702641,-1.779729 z m 11.618832,-2.099095 c 0,-1.698234 -0.216275,-1.916198 -1.901348,-1.916198 -2.527822,0 -3.811289,-2.132959 -2.290557,-3.806612 0.933761,-1.027657 0.938235,-1.184596 0.04351,-1.526556 -2.988987,-1.142384 -6.502572,3.426858 -6.188456,8.047782 0.0656,0.965099 0.776772,1.117782 5.206416,1.117782 l 5.130432,0 0,-1.916198 z m 10.047097,3.406574 c -0.235145,-0.234202 -0.427536,-1.539086 -0.427536,-2.899743 0,-6.024871 5.017943,-10.428338 10.012652,-8.786545 3.967506,1.304145 6.522442,5.731032 5.731408,9.930699 l -0.410883,2.181411 -7.239052,0 c -3.98148,0 -7.431445,-0.19162 -7.666589,-0.425822 z m 13.91279,-2.447764 c 0.71957,-1.867651 -0.442051,-3.194375 -2.796854,-3.194375 -1.855433,0 -2.280894,-0.255248 -2.454119,-1.472306 -0.115255,-0.809768 0.116378,-1.863457 0.514742,-2.341531 1.030823,-1.237085 -1.405508,-1.919713 -3.327157,-0.932225 -3.207678,1.648346 -4.353026,3.262524 -4.353026,6.134868 l 0,2.762957 6.023775,0 c 4.760882,0 6.101109,-0.200718 6.392639,-0.957388 z"
       id="path3152"
       inkscape:connector-curvature="0" />
  </g>
  <g
     inkscape:groupmode="layer"
     id="layer6"
     inkscape:label="MouthTop">
    <path
       style="fill:#871945"
       d="m 26.1777,47.259517 c -0.577514,-0.1741 -2.16333,-1.506358 -3.192876,-2.682365 -2.392257,-2.732571 -4.839249,-6.988313 -5.501233,-9.567595 -0.100301,-0.390798 -0.180524,-1.066556 -0.13233,-1.114666 0.149057,-0.148793 1.245228,-0.270268 3.358577,-0.372188 1.722301,-0.08306 11.253871,-0.07038 18.541518,0.02467 3.172835,0.04138 6.248022,0.07524 6.833749,0.07524 l 1.064959,0 -0.02104,2.511363 c -0.02171,2.59151 -0.03973,2.880666 -0.241456,3.873812 -0.151445,0.745605 -0.465672,1.522386 -0.83711,2.06937 -0.254893,0.375358 -1.317712,1.772728 -1.34831,1.772728 -0.01467,0 -0.541668,-0.506843 -1.171111,-1.126318 -1.230275,-1.210792 -1.72177,-1.618369 -2.243999,-1.860857 -0.859289,-0.398996 -1.63304,-0.484931 -4.372657,-0.485638 -4.010176,-0.001 -4.423427,0.147435 -6.989045,2.510963 -0.969815,0.893424 -2.126252,2.238332 -2.48739,2.892776 -0.08304,0.15049 -0.205382,0.427028 -0.27186,0.614528 -0.272705,0.769148 -0.537025,1.000253 -0.988389,0.864183 z"
       id="path3166"
       inkscape:connector-curvature="0" />
  </g>
  <g
     inkscape:groupmode="layer"
     id="layer7"
     inkscape:label="MouthBottom">
    <path
       style="fill:#fbc0df"
       d="m 31.95641,49.17159 c -0.35484,-0.04944 -0.834688,-0.200495 -1.490171,-0.469114 -0.858542,-0.351833 -1.220817,-0.731879 -1.32717,-1.392272 -0.141898,-0.881106 0.596274,-2.184752 1.886097,-3.330934 0.931817,-0.828045 1.879293,-1.28156 3.252854,-1.556998 2.05239,-0.411562 4.313915,-0.148761 6.022727,0.699872 1.265596,0.628522 2.659091,1.945131 2.659091,2.512376 0,0.293443 -0.182238,0.422222 -0.664587,0.469632 -0.532447,0.05233 -0.945726,0.23749 -1.721777,0.771388 -0.677404,0.466033 -1.309539,0.74519 -2.608653,1.152007 -0.948944,0.297163 -1.517363,0.439915 -2.982256,0.748961 -1.871857,0.394903 -2.468411,0.472787 -3.026155,0.395082 l 0,0 z"
       id="path3169"
       inkscape:connector-curvature="0" />
  </g>
  <g
     inkscape:groupmode="layer"
     id="layer8"
     inkscape:label="Eyes">
    <path
       style="fill:#ffffff"
       d="m 15.303589,25.490374 c -0.475115,-0.07963 -0.952412,-0.233637 -1.06066,-0.342234 -0.273293,-0.274173 -0.167354,-2.520119 0.17483,-3.706486 0.819056,-2.8397 2.944716,-5.117485 4.787565,-5.130192 0.728327,-0.005 1.451842,0.273654 1.580423,0.608731 0.05755,0.14998 -0.143079,0.573105 -0.463694,0.977915 -0.685884,0.865998 -0.860812,1.842814 -0.466547,2.605238 0.36139,0.698853 1.562564,1.284311 2.634996,1.284311 1.012686,0 1.658655,0.278707 1.791264,0.77285 0.05553,0.206909 0.102043,0.992707 0.103371,1.746218 l 0.0024,1.370019 -4.110058,-0.02079 c -2.260532,-0.01144 -4.498789,-0.08595 -4.973904,-0.165578 z"
       id="path3191"
       inkscape:connector-curvature="0" />
    <path
       style="fill:#ffffff"
       d="m 35.913446,23.396574 c 0.07295,-2.020147 0.136512,-2.390902 0.557411,-3.25119 0.574866,-1.174984 1.591211,-2.144781 3.177277,-3.031759 1.44048,-0.805562 3.005356,-1.040401 3.737253,-0.560844 0.543773,0.356294 0.550451,0.491371 0.07305,1.477547 -0.436187,0.901041 -0.403041,2.525171 0.06101,2.989217 0.173161,0.173161 0.853181,0.337508 1.840867,0.444899 1.755039,0.190825 2.459547,0.512488 2.945736,1.344959 0.425296,0.728207 0.273581,1.876731 -0.297321,2.2508 -0.675823,0.442817 -2.718039,0.609439 -7.513765,0.61304 l -4.663851,0.0035 0.08234,-2.28017 z"
       id="path3193"
       inkscape:connector-curvature="0" />
  </g>
</svg>
